<?xml version="1.0" standalone="no"?><!DOCTYPE svg PUBLIC "-//W3C//DTD SVG 1.1//EN" "http://www.w3.org/Graphics/SVG/1.1/DTD/svg11.dtd"><svg class="icon" width="128px" height="128.00px" viewBox="0 0 1024 1024" version="1.1" xmlns="http://www.w3.org/2000/svg"><path fill="#1296db" d="M721.96 390.88h-56.5c-2.15-19.51-9.57-38.55-22.23-54.83l39.17-39.17c5.32-5.32 5.32-13.95 0-19.28s-13.95-5.32-19.28 0l-39.17 39.17c-16.08-12.51-34.84-19.89-54.1-22.15v-56c0-7.53-6.1-13.63-13.63-13.63-7.53 0-13.63 6.1-13.63 13.63v56.21a108.538 108.538 0 0 0-52.33 21.93L454.7 281.2c-5.32-5.32-13.95-5.32-19.28 0-5.32 5.32-5.32 13.95 0 19.28l34.94 34.94-31.83 31.83-34.94-34.94c-5.32-5.32-13.95-5.32-19.28 0-5.32 5.32-5.32 13.95 0 19.28l34.94 34.94-31.83 31.83-34.94-34.94c-5.32-5.32-13.95-5.32-19.28 0-5.32 5.32-5.32 13.95 0 19.28l34.94 34.94-31.83 31.83-34.94-34.94c-5.32-5.32-13.95-5.32-19.28 0s-5.32 13.95 0 19.28l35.45 35.45a108.522 108.522 0 0 0-22.62 52.6h-56.89c-7.53 0-13.63 6.1-13.63 13.63s6.1 13.63 13.63 13.63h56.5c2.15 19.51 9.57 38.55 22.23 54.83l-39.17 39.17c-5.32 5.32-5.32 13.95 0 19.28s13.95 5.32 19.28 0l39.17-39.17c16.08 12.51 34.84 19.89 54.1 22.15v56c0 7.53 6.1 13.63 13.63 13.63s13.63-6.1 13.63-13.63v-56.21c19.04-2.54 37.52-10.11 53.33-22.71l35.45 35.45c5.32 5.32 13.95 5.32 19.28 0s5.32-13.95 0-19.28l-34.94-34.94 31.83-31.83 34.94 34.94c5.32 5.32 13.95 5.32 19.28 0 5.32-5.32 5.32-13.95 0-19.28l-34.94-34.94 31.83-31.83 34.94 34.94c5.32 5.32 13.95 5.32 19.28 0 5.32-5.32 5.32-13.95 0-19.28l-34.94-34.94 31.83-31.83 34.94 34.94c5.32 5.32 13.95 5.32 19.28 0 5.32-5.32 5.32-13.95 0-19.28l-35.56-35.56a108.448 108.448 0 0 0 21.85-51.6h56.89c7.53 0 13.63-6.1 13.63-13.63-0.01-7.53-6.12-13.63-13.64-13.63z m-107.03 69.84l-154.2 154.2c-31.89 31.89-83.77 31.89-115.65 0-31.89-31.89-31.89-83.77 0-115.65l154.2-154.2c31.89-31.89 83.77-31.89 115.65 0 31.88 31.89 31.88 83.77 0 115.65z"  /><path fill="#1296db" d="M549.12 422.17a27.26 27.26 0 1 0 54.52 0 27.26 27.26 0 1 0-54.52 0zM524.2 364.35a13.63 13.63 0 1 0 27.26 0 13.63 13.63 0 1 0-27.26 0zM496.08 416.56a13.63 13.63 0 1 0 27.26 0 13.63 13.63 0 1 0-27.26 0zM394.91 576.38a27.26 27.26 0 1 0 54.52 0 27.26 27.26 0 1 0-54.52 0zM433.46 460.72a27.26 27.26 0 1 0 54.52 0 27.26 27.26 0 1 0-54.52 0zM495.28 489.64a13.63 13.63 0 1 0 27.26 0 13.63 13.63 0 1 0-27.26 0zM467.17 541.85a13.63 13.63 0 1 0 27.26 0 13.63 13.63 0 1 0-27.26 0zM390.96 497.59a13.63 13.63 0 1 0 27.26 0 13.63 13.63 0 1 0-27.26 0zM362.84 549.8a13.63 13.63 0 1 0 27.26 0 13.63 13.63 0 1 0-27.26 0z"  /><path fill="#1296db" d="M950.63 905.37L795.91 750.66C858.3 677.91 896 583.36 896 480c0-229.75-186.25-416-416-416S64 250.25 64 480s186.25 416 416 416c103.36 0 197.91-37.7 270.66-100.09l154.71 154.71c6.25 6.25 14.44 9.37 22.63 9.37s16.38-3.12 22.63-9.37c12.49-12.49 12.49-32.75 0-45.25zM728.9 728.9c-32.35 32.35-70 57.74-111.91 75.46C573.64 822.7 527.55 832 480 832c-47.55 0-93.64-9.3-136.99-27.64-41.91-17.73-79.56-43.12-111.91-75.46-32.35-32.35-57.74-70-75.46-111.91C137.3 573.64 128 527.55 128 480s9.3-93.64 27.64-136.99c17.73-41.91 43.12-79.56 75.46-111.91 32.35-32.35 70-57.74 111.91-75.46C386.36 137.3 432.45 128 480 128c47.55 0 93.64 9.3 136.99 27.64 41.91 17.73 79.56 43.12 111.91 75.46 32.35 32.35 57.74 70 75.46 111.91C822.7 386.36 832 432.45 832 480s-9.3 93.64-27.64 136.99c-17.72 41.91-43.11 79.56-75.46 111.91z"  /></svg>