<?xml version="1.0" standalone="no"?><!DOCTYPE svg PUBLIC "-//W3C//DTD SVG 1.1//EN" "http://www.w3.org/Graphics/SVG/1.1/DTD/svg11.dtd"><svg t="1587996293427" class="icon" viewBox="0 0 1170 1024" version="1.1" xmlns="http://www.w3.org/2000/svg" p-id="12412" xmlns:xlink="http://www.w3.org/1999/xlink" width="146.25" height="128"><defs><style type="text/css"></style></defs><path d="M820.175238 456.850286l-84.845714-1.511619-30.866286-77.04381a36.230095 36.230095 0 0 0-36.376381-23.649524 37.546667 37.546667 0 0 0-34.57219 25.941334l-32.036572 98.401523-61.537524-213.382095a37.936762 37.936762 0 0 0-34.864761-27.257905 38.473143 38.473143 0 0 0-36.815239 24.478477L395.800381 456.704H308.760381a37.741714 37.741714 0 0 0 0 75.483429h113.371429c15.701333 0 29.744762-9.752381 35.206095-24.576l41.691428-111.420953 63.926857 221.769143a37.790476 37.790476 0 0 0 35.596191 27.209143h0.633905a37.839238 37.839238 0 0 0 35.742476-26.087619l38.131809-116.540953 1.462858 3.803429c5.753905 14.09219 19.163429 23.405714 34.377142 23.698286l109.909334 1.950476h0.78019a37.839238 37.839238 0 0 0 38.13181-37.400381 37.936762 37.936762 0 0 0-37.546667-37.741714z" fill="#d81e06" p-id="12413"></path><path d="M1130.642286 306.371048a321.682286 321.682286 0 0 0-93.964191-212.114286A320.999619 320.999619 0 0 0 868.205714 5.412571c-1.755429-0.390095-3.559619-0.487619-5.315047-0.633904h-0.633905A320.121905 320.121905 0 0 0 807.302095 0h-0.243809a320.414476 320.414476 0 0 0-226.108953 94.354286l-15.067428 14.969904-15.067429-14.969904A320.75581 320.75581 0 0 0 324.754286 0h-0.24381c-18.529524 0-37.010286 1.657905-55.003428 4.827429h-0.633905c-1.755429 0.097524-3.510857 0.24381-5.315048 0.633904a321.048381 321.048381 0 0 0-168.326095 88.746667A321.097143 321.097143 0 0 0 1.26781 306.371048a36.132571 36.132571 0 0 0 1.121523 11.702857 22.186667 22.186667 0 0 1 0.633905 5.022476 320.365714 320.365714 0 0 0 24.576 122.489905c16.091429 39.009524 39.399619 73.97181 69.290667 104.106666l440.612571 440.612572a40.667429 40.667429 0 0 0 28.623238 11.897905 40.667429 40.667429 0 0 0 28.623238-11.897905l440.661334-440.758857a322.413714 322.413714 0 0 0 93.720381-226.596572c0-1.609143 0.24381-3.267048 0.633904-4.87619a59.489524 59.489524 0 0 0 0.877715-11.702857z m-82.944 16.481523a239.957333 239.957333 0 0 1-70.070857 169.447619l-411.843048 412.038096-411.794286-411.89181A239.762286 239.762286 0 0 1 83.870476 322.950095c0-5.851429-0.487619-11.751619-1.462857-17.554285a240.493714 240.493714 0 0 1 70.022095-153.795048A240.054857 240.054857 0 0 1 275.992381 85.625905l3.657143-0.390095 2.535619-0.390096c13.799619-2.535619 27.989333-3.803429 42.179047-3.803428 63.829333 0.390095 123.855238 25.453714 169.057524 70.704762l0.146286 0.097523 43.203048 42.715429a40.277333 40.277333 0 0 0 28.476952 11.751619h0.487619a40.764952 40.764952 0 0 0 29.013333-11.654095l43.203048-42.666667 0.146286-0.146286a239.713524 239.713524 0 0 1 169.057524-70.704761c14.189714 0 28.379429 1.316571 42.179047 3.85219l2.535619 0.390095 3.657143 0.341334c47.006476 9.264762 89.721905 32.085333 123.660191 66.023619a240.152381 240.152381 0 0 1 70.022095 153.746285 114.688 114.688 0 0 0-1.511619 17.359238z" fill="#d81e06" p-id="12414"></path></svg>