<?xml version="1.0" standalone="no"?><!DOCTYPE svg PUBLIC "-//W3C//DTD SVG 1.1//EN" "http://www.w3.org/Graphics/SVG/1.1/DTD/svg11.dtd"><svg class="icon" width="128px" height="128.00px" viewBox="0 0 1024 1024" version="1.1" xmlns="http://www.w3.org/2000/svg"><path fill="#1296db" d="M512 598.016c24.576 0 44.544-20.48 44.544-45.568V305.152c0-25.088-19.968-45.568-44.544-45.568-24.576 0-44.544 20.48-44.544 45.568l1.024 247.296c0 25.6 18.944 45.568 43.52 45.568zM512 666.112c-26.112 0-47.616 21.504-47.616 48.64v1.536c0 26.624 21.504 48.64 47.616 48.64 26.112 0 47.616-21.504 47.616-48.64v-1.536c0-27.136-21.504-48.64-47.616-48.64z"  /><path fill="#1296db" d="M517.12 76.8c-240.128 0-435.2 195.072-435.2 435.2s195.072 435.2 435.2 435.2 435.2-195.072 435.2-435.2-195.072-435.2-435.2-435.2z m0 785.408c-193.024 0-350.208-157.184-350.208-350.208S324.096 161.792 517.12 161.792s350.208 157.184 350.208 350.208-157.184 350.208-350.208 350.208z"  /></svg>