<?xml version="1.0" standalone="no"?><!DOCTYPE svg PUBLIC "-//W3C//DTD SVG 1.1//EN" "http://www.w3.org/Graphics/SVG/1.1/DTD/svg11.dtd"><svg class="icon" width="128px" height="128.00px" viewBox="0 0 1024 1024" version="1.1" xmlns="http://www.w3.org/2000/svg"><path fill="#1296db" d="M512 0a512 512 0 0 1 512 512c0 282.773333-229.226667 512-512 512S0 794.773333 0 512 229.226667 0 512 0z m-46.613333 341.589333c-151.36-118.528-231.381333 45.546667-233.173334 49.813334-70.4 165.546667 78.677333 242.389333 81.813334 243.904 151.253333 73.109333 196.736 176.064 196.736 176.064 51.413333-97.92 178.688-167.317333 185.173333-170.901334 146.090667-80.725333 111.466667-204.544 110.464-207.850666-57.664-189.802667-212.522667-115.925333-212.522667-115.925334l-108.245333 134.826667 108.245333 84.16-83.114666 85.034667 15.36 103.04-54.570667-109.909334 54.549333-73.002666-118.784-79.872 70.4-105.642667z" /></svg>