<?xml version="1.0" standalone="no"?><!DOCTYPE svg PUBLIC "-//W3C//DTD SVG 1.1//EN" "http://www.w3.org/Graphics/SVG/1.1/DTD/svg11.dtd"><svg t="1587861439123" class="icon" viewBox="0 0 1024 1024" version="1.1" xmlns="http://www.w3.org/2000/svg" p-id="11034" xmlns:xlink="http://www.w3.org/1999/xlink" width="128" height="128"><defs><style type="text/css"></style></defs><path d="M7.68 511.146667C7.68 790.186667 232.96 1015.466667 512 1015.466667s504.32-225.28 504.32-504.32C1018.026667 232.106667 791.04 6.826667 512 6.826667S7.68 232.106667 7.68 511.146667z m0 0" fill="#CCCCCC" p-id="11035"></path><path d="M446.293333 580.266667C299.52 643.413333 256 680.106667 237.226667 694.613333c-27.306667 24.746667-41.813333 124.586667-58.026667 197.973334 0 0 129.706667 124.586667 333.653333 124.586666 202.24 0 333.653333-124.586667 333.653334-124.586666-16.213333-75.093333-30.72-177.493333-58.026667-200.533334-18.773333-14.506667-60.586667-49.493333-206.506667-114.346666l-135.68 2.56z m0 0" fill="#FFDE39" p-id="11036"></path><path d="M581.973333 451.413333V614.4c-39.253333 47.786667-104.106667 46.08-143.36 0V451.413333c0.853333-88.746667 143.36-88.746667 143.36 0z m0 0" fill="#FFDECC" p-id="11037"></path><path d="M581.973333 451.413333v110.08c-27.306667 20.48-53.76 30.72-72.533333 30.72s-43.52-10.24-72.533333-30.72V451.413333c2.56-88.746667 145.066667-88.746667 145.066666 0z m0 0" fill="#F7C5AA" p-id="11038"></path><path d="M433.493333 580.266667l-52.053333 27.306666L456.533333 708.266667l56.32-53.76-79.36-74.24z m157.013334 0l52.053333 27.306666L567.466667 708.266667l-56.32-53.76 79.36-74.24z m0 0" fill="#FFFFFF" p-id="11039"></path><path d="M511.146667 169.813333c-239.786667 0-152.746667 290.133333-138.24 312.32 16.213333 24.746667 99.84 92.16 138.24 92.16 39.253333 0 119.466667-68.266667 138.24-92.16 15.36-21.333333 103.253333-312.32-138.24-312.32z m0 0" fill="#FFDECC" p-id="11040"></path><path d="M327.68 360.96c12.8-4.266667 29.013333 10.24 34.986667 30.72 5.973333 23.04 1.706667 43.52-10.24 47.786667-12.8 4.266667-27.306667-10.24-34.986667-30.72-5.12-23.04-2.56-43.52 10.24-47.786667z m368.64 0c-12.8-4.266667-29.013333 10.24-34.986667 30.72-5.973333 23.04-1.706667 43.52 10.24 47.786667 12.8 4.266667 29.013333-10.24 34.986667-33.28 5.973333-20.48 2.56-40.96-10.24-45.226667z m0 0" fill="#FFDECC" p-id="11041"></path><path d="M402.773333 267.093333c-14.506667 76.8-49.493333 68.266667-46.08 157.013334-10.24-70.826667-27.306667-162.133333 18.773334-223.573334 37.546667-49.493333 162.986667-81.92 244.053333-24.746666 89.6 18.773333 62.293333 200.533333 49.493333 235.52-8.533333-56.32-27.306667-77.653333-52.053333-144.213334-30.72 25.6-173.226667 29.866667-214.186667 0z m0 0" fill="#CC7B53" p-id="11042"></path><path d="M394.24 394.24c0.853333-10.24 3.413333-17.92 8.533333-21.333333 5.12-3.413333 23.04-5.973333 41.813334-5.12v-5.973334c-23.04-0.853333-54.613333 1.706667-60.586667 3.413334-5.973333 1.706667-6.826667 2.56-7.68 5.973333 0 0.853333 0 1.706667-0.853333 3.413333-0.853333 5.973333 0 11.093333 4.266666 12.8 5.973333 1.706667 5.973333 10.24 8.533334 33.28 0.853333 7.68 2.56 14.506667 6.826666 20.48 5.973333 10.24 17.92 17.92 40.96 19.626667H441.173333v-5.973333h-0.853333c-17.066667 0-34.986667-6.826667-41.813333-19.626667-0.853333-0.853333-0.853333-2.56-1.706667-3.413333-1.706667-9.386667-3.413333-24.746667-2.56-37.546667z m191.146667-25.6v-5.973333h-4.266667c-21.333333 1.706667-46.933333 11.093333-66.56 11.946666h-0.853333c-9.386667 0-41.813333-9.386667-64.853334-11.093333-1.706667 0-3.413333 0-5.12-0.853333v5.973333c19.626667 0.853333 39.253333 5.12 46.08 15.36 4.266667 5.973333 4.266667 15.36 1.706667 24.746667-4.266667 17.92-17.066667 36.693333-29.013333 42.666666-5.973333 2.56-12.8 4.266667-20.48 4.266667v5.973333c31.573333 0 43.52-23.04 47.786666-30.72 4.266667-7.68 5.12-17.066667 8.533334-23.893333 2.56-5.973333 6.826667-10.24 15.36-10.24s12.8 4.266667 15.36 11.093333c2.56 5.973333 3.413333 13.653333 5.973333 20.48 0 0.853333 0.853333 1.706667 0.853333 2.56 3.413333 7.68 13.653333 30.72 44.373334 30.72h2.56v-5.973333h-6.826667c-5.973333-0.853333-11.093333-1.706667-15.36-4.266667-6.826667-3.413333-12.8-11.093333-17.92-20.48-3.413333-6.826667-6.826667-14.506667-7.68-21.333333-1.706667-9.386667-1.706667-18.773333 3.413333-24.746667 7.68-11.093333 28.16-15.36 46.933334-16.213333z m68.266666 0.853333c-0.853333-1.706667-2.56-2.56-6.826666-4.266666-5.973333-1.706667-37.546667-5.12-60.586667-3.413334v5.973334c18.773333-0.853333 36.693333 0.853333 41.813333 4.266666 4.266667 2.56 6.826667 9.386667 6.826667 17.066667 0.853333 12.8-1.706667 30.72-6.826667 42.666667-0.853333 0.853333-0.853333 2.56-1.706666 3.413333-6.826667 12.8-24.746667 18.773333-40.96 19.626667h-0.853334v5.973333h4.266667c23.893333-1.706667 35.84-9.386667 42.666667-19.626667 4.266667-5.973333 5.973333-12.8 7.68-20.48 4.266667-23.04 5.12-30.72 11.093333-33.28 4.266667-1.706667 5.12-6.826667 5.12-12.8-1.706667-2.56-1.706667-3.413333-1.706667-5.12z m0 0" fill="#C93838" p-id="11043"></path><path d="M770.56 778.24m-93.866667 0a93.866667 93.866667 0 1 0 187.733334 0 93.866667 93.866667 0 1 0-187.733334 0Z" fill="#CCCCCC" p-id="11044"></path><path d="M958.293333 779.093333c0-24.746667 13.653333-46.933333 40.96-66.56l-62.293333-103.253333c-33.28 11.093333-59.733333 11.093333-79.36 0-19.626667-11.093333-29.013333-31.573333-28.16-61.44H711.68c0 30.72-10.24 51.2-29.866667 61.44-19.626667 11.093333-45.226667 11.093333-75.093333 0l-62.293333 103.253333c25.6 14.506667 38.4 35.84 38.4 65.706667s-12.8 52.053333-38.4 68.266667l62.293333 93.013333c23.893333-11.946667 47.786667-11.946667 71.68 0 23.04 11.946667 34.133333 32.426667 33.28 61.44h118.613333c1.706667-28.16 11.946667-48.64 32.426667-61.44s45.226667-12.8 75.093333 0l61.44-93.013333c-27.306667-19.626667-40.96-42.666667-40.96-67.413334z m-144.213333 67.413334c-25.6 14.506667-57.173333 14.506667-82.773333 0-25.6-14.506667-40.96-41.813333-40.96-71.68 0-45.226667 36.693333-82.773333 82.773333-82.773334 45.226667 0 82.773333 36.693333 82.773333 82.773334-0.853333 29.013333-16.213333 56.32-41.813333 71.68z" fill="#C93838" p-id="11045"></path></svg>