<?xml version="1.0" standalone="no"?><!DOCTYPE svg PUBLIC "-//W3C//DTD SVG 1.1//EN" "http://www.w3.org/Graphics/SVG/1.1/DTD/svg11.dtd"><svg t="1588001610340" class="icon" viewBox="0 0 1024 1024" version="1.1" xmlns="http://www.w3.org/2000/svg" p-id="3400" xmlns:xlink="http://www.w3.org/1999/xlink" width="128" height="128"><defs><style type="text/css"></style></defs><path d="M511.954506 1024L62.189613 768V256L511.954506 0l449.73661 256v512z" fill="#FF8C00" p-id="3401"></path><path d="M511.897939 512m-104.649107 0a104.649107 104.649107 0 1 0 209.298215 0 104.649107 104.649107 0 1 0-209.298215 0Z" fill="#FFFFFF" p-id="3402"></path><path d="M511.897939 512m-70.708856 0a70.708856 70.708856 0 1 0 141.417713 0 70.708856 70.708856 0 1 0-141.417713 0Z" fill="#00CD65" p-id="3403"></path><path d="M246.03264 359.26887m-82.022274 0a82.022273 82.022273 0 1 0 164.044547 0 82.022273 82.022273 0 1 0-164.044547 0Z" fill="#FFFFFF" p-id="3404"></path><path d="M246.03264 359.26887m-48.082023 0a48.082022 48.082022 0 1 0 96.164045 0 48.082022 48.082022 0 1 0-96.164045 0Z" fill="#00CD65" p-id="3405"></path><path d="M777.763239 359.26887m-82.022273 0a82.022273 82.022273 0 1 0 164.044546 0 82.022273 82.022273 0 1 0-164.044546 0Z" fill="#FFFFFF" p-id="3406"></path><path d="M777.763239 359.26887m-48.082022 0a48.082022 48.082022 0 1 0 96.164044 0 48.082022 48.082022 0 1 0-96.164044 0Z" fill="#00CD65" p-id="3407"></path><path d="M511.897939 817.462259m-82.022273 0a82.022273 82.022273 0 1 0 164.044547 0 82.022273 82.022273 0 1 0-164.044547 0Z" fill="#FFFFFF" p-id="3408"></path><path d="M511.897939 817.462259m-48.082022 0a48.082022 48.082022 0 1 0 96.164045 0 48.082022 48.082022 0 1 0-96.164045 0Z" fill="#00CD65" p-id="3409"></path><path d="M323.331561 379.06735l117.761358 66.126923L417.628892 486.544812 299.867534 420.417889zM706.239817 373.410642L576.865236 445.194273 600.391487 486.544812l129.37458-71.783631zM488.252898 608.49779l-0.277179 135.314124 47.572918-0.220611 0.277179-135.314124z" fill="#FFFFFF" p-id="3410"></path></svg>