<?xml version="1.0" standalone="no"?><!DOCTYPE svg PUBLIC "-//W3C//DTD SVG 1.1//EN" "http://www.w3.org/Graphics/SVG/1.1/DTD/svg11.dtd"><svg t="1587861432205" class="icon" viewBox="0 0 1024 1024" version="1.1" xmlns="http://www.w3.org/2000/svg" p-id="10886" xmlns:xlink="http://www.w3.org/1999/xlink" width="128" height="128"><defs><style type="text/css"></style></defs><path d="M7.68 511.146667C7.68 790.186667 232.96 1015.466667 512 1015.466667s504.32-225.28 504.32-504.32C1018.026667 232.106667 791.04 6.826667 512 6.826667S7.68 232.106667 7.68 511.146667z m0 0" fill="#CCCCCC" p-id="10887"></path><path d="M362.666667 806.4l-72.533334-93.866667 86.186667-100.693333c-91.306667 44.373333-123.733333 69.973333-139.093333 81.92-27.306667 24.746667-41.813333 124.586667-58.026667 197.973333 0 0 78.506667 75.093333 209.066667 108.373334l-65.706667-162.986667 40.106667-30.72zM395.093333 612.693333l9.386667-3.413333 109.226667 41.813333 98.986666-46.933333 16.213334 8.533333v-0.853333l15.36-3.413333L733.866667 712.533333l-72.533334 93.866667 40.106667 31.573333-65.706667 162.986667c131.413333-33.28 211.626667-109.226667 211.626667-109.226667-16.213333-75.093333-30.72-177.493333-58.026667-200.533333-18.773333-14.506667-60.586667-49.493333-206.506666-114.346667l-136.533334 3.413334c-23.893333 10.24-44.373333 19.626667-63.146666 28.16l11.946666 2.56v1.706666z" fill="#333332" p-id="10888"></path><path d="M628.906667 611.84l-16.213334-8.533333-98.986666 46.933333-109.226667-41.813333-9.386667 3.413333-2.56 14.506667 59.733334 385.706666c19.626667 2.56 40.106667 3.413333 60.586666 3.413334 20.48 0 40.106667-1.706667 58.88-3.413334l59.733334-385.706666-2.56-14.506667z" fill="#E2E2E0" p-id="10889"></path><path d="M391.68 627.2l2.56-14.506667v-1.706666l-10.24-2.56-1.706667-0.853334-5.973333 4.266667L290.133333 712.533333l72.533334 93.866667-40.106667 31.573333 65.706667 162.986667c11.946667 3.413333 23.893333 5.973333 36.693333 7.68 8.533333 1.706667 17.92 2.56 27.306667 4.266667l-60.586667-385.706667zM733.866667 712.533333L644.266667 605.013333l-15.36 5.973334v0.853333l3.413333 15.36-59.733333 385.706667c7.68-0.853333 15.36-1.706667 23.04-3.413334 13.653333-2.56 27.306667-5.12 40.96-8.533333l65.706666-162.986667-40.106666-31.573333 71.68-93.866667z" fill="#7F7F7F" p-id="10890"></path><path d="M581.973333 451.413333V614.4c-39.253333 47.786667-104.106667 46.08-143.36 0V451.413333c0.853333-88.746667 143.36-88.746667 143.36 0z m0 0" fill="#FFDECC" p-id="10891"></path><path d="M581.973333 451.413333v110.08c-27.306667 20.48-53.76 30.72-72.533333 30.72s-43.52-10.24-72.533333-30.72V451.413333c2.56-88.746667 145.066667-88.746667 145.066666 0z m0 0" fill="#F7C5AA" p-id="10892"></path><path d="M511.146667 169.813333c-239.786667 0-152.746667 290.133333-138.24 312.32 16.213333 24.746667 99.84 92.16 138.24 92.16 39.253333 0 119.466667-68.266667 138.24-92.16 15.36-21.333333 103.253333-312.32-138.24-312.32z m0 0" fill="#FFDECC" p-id="10893"></path><path d="M327.68 360.96c12.8-4.266667 29.013333 10.24 34.986667 30.72 5.973333 23.04 1.706667 43.52-10.24 47.786667-12.8 4.266667-27.306667-10.24-34.986667-30.72-5.12-23.04-2.56-43.52 10.24-47.786667z m368.64 0c-12.8-4.266667-29.013333 10.24-34.986667 30.72-5.973333 23.04-1.706667 43.52 10.24 47.786667 12.8 4.266667 29.013333-10.24 34.986667-33.28 5.973333-20.48 2.56-40.96-10.24-45.226667z m0 0" fill="#FFDECC" p-id="10894"></path><path d="M402.773333 267.093333c-14.506667 76.8-49.493333 68.266667-46.08 157.013334-10.24-70.826667-27.306667-162.133333 18.773334-223.573334 37.546667-49.493333 162.986667-81.92 244.053333-24.746666 89.6 18.773333 62.293333 200.533333 49.493333 235.52-8.533333-56.32-27.306667-77.653333-52.053333-144.213334-30.72 25.6-173.226667 29.866667-214.186667 0z m0 0" fill="#82513B" p-id="10895"></path><path d="M512 732.16h22.186667l22.186666-48.64-44.373333-28.16-44.373333 28.16 22.186666 48.64zM512 957.44l51.2-34.133333-29.013333-185.173334h-44.373334L460.8 923.306667l51.2 34.133333z" fill="#C93838" p-id="10896"></path><path d="M438.613333 579.413333l-57.173333 28.16L456.533333 708.266667l56.32-53.76-74.24-75.093334z m143.36-1.706666l62.293334 28.16-76.8 103.253333-56.32-53.76 70.826666-77.653333z" fill="#FFFFFF" p-id="10897"></path><path d="M389.973333 394.24c0.853333-10.24 3.413333-17.92 8.533334-21.333333 5.12-3.413333 23.04-5.973333 41.813333-5.12v-5.973334c-23.04-0.853333-54.613333 1.706667-60.586667 3.413334-5.973333 1.706667-6.826667 2.56-7.68 5.973333 0 0.853333 0 1.706667-0.853333 3.413333-0.853333 5.973333 0 11.093333 4.266667 12.8 5.973333 1.706667 5.973333 10.24 8.533333 33.28 0.853333 7.68 2.56 14.506667 6.826667 20.48 5.973333 10.24 17.92 17.92 40.96 19.626667H436.906667v-5.973333h-0.853334c-17.066667 0-34.986667-6.826667-41.813333-19.626667-0.853333-0.853333-0.853333-2.56-1.706667-3.413333-1.706667-9.386667-3.413333-24.746667-2.56-37.546667z m191.146667-26.453333v-5.973334h-4.266667c-21.333333 1.706667-46.933333 11.093333-66.56 11.946667h-0.853333c-9.386667 0-41.813333-9.386667-64.853333-11.093333-1.706667 0-3.413333 0-5.12-0.853334v5.973334c19.626667 0.853333 39.253333 5.12 46.08 15.36 4.266667 5.973333 4.266667 15.36 1.706666 24.746666-4.266667 17.92-17.066667 36.693333-29.013333 42.666667-5.973333 2.56-12.8 4.266667-20.48 4.266667v5.973333c31.573333 0 43.52-23.04 47.786667-30.72 4.266667-7.68 5.12-17.066667 8.533333-23.893333 2.56-5.973333 6.826667-10.24 15.36-10.24s12.8 4.266667 15.36 11.093333c2.56 5.973333 3.413333 13.653333 5.973333 20.48 0 0.853333 0.853333 1.706667 0.853334 2.56 3.413333 7.68 13.653333 30.72 44.373333 30.72h2.56v-5.973333H571.733333c-5.973333-0.853333-11.093333-1.706667-15.36-4.266667-6.826667-3.413333-12.8-11.093333-17.92-20.48-3.413333-6.826667-6.826667-14.506667-7.68-21.333333-1.706667-9.386667-1.706667-18.773333 3.413334-24.746667 8.533333-10.24 28.16-14.506667 46.933333-16.213333z m68.266667 1.706666c-0.853333-1.706667-2.56-2.56-6.826667-4.266666-5.973333-1.706667-37.546667-5.12-60.586667-3.413334v5.973334c18.773333-0.853333 36.693333 0.853333 41.813334 4.266666 4.266667 2.56 6.826667 9.386667 6.826666 17.066667 0.853333 12.8-1.706667 30.72-6.826666 42.666667-0.853333 0.853333-0.853333 2.56-1.706667 3.413333-6.826667 12.8-24.746667 18.773333-40.96 19.626667H580.266667v5.973333h4.266666c23.893333-1.706667 35.84-9.386667 42.666667-19.626667 4.266667-5.973333 5.973333-12.8 7.68-20.48 4.266667-23.04 5.12-30.72 11.093333-33.28 4.266667-1.706667 5.12-6.826667 5.12-12.8-1.706667-2.56-1.706667-4.266667-1.706666-5.12z m0 0" fill="#383333" p-id="10898"></path><path d="M788.48 779.946667m-79.36 0a79.36 79.36 0 1 0 158.72 0 79.36 79.36 0 1 0-158.72 0Z" fill="#CCCCCC" p-id="10899"></path><path d="M953.173333 783.36c0-22.186667 11.946667-41.813333 36.693334-58.88l-54.613334-91.306667c-29.013333 10.24-52.906667 10.24-69.973333 0-17.066667-10.24-25.6-28.16-24.746667-54.613333H735.573333c0 27.306667-8.533333 45.226667-26.453333 54.613333-17.92 9.386667-40.106667 9.386667-65.706667 0L587.946667 725.333333c23.04 12.8 34.133333 32.426667 34.133333 58.026667 0 26.453333-11.093333 46.08-34.133333 59.733333l54.613333 82.773334c21.333333-11.093333 42.666667-11.093333 63.146667 0 20.48 11.093333 30.72 29.013333 29.013333 53.76h104.96c1.706667-24.746667 11.093333-42.666667 29.013333-53.76 17.92-11.093333 40.106667-11.093333 66.56 0l54.613334-82.773334c-24.746667-17.92-36.693333-37.546667-36.693334-59.733333z m-128 59.733333a74.922667 74.922667 0 0 1-73.386666 0c-23.04-12.8-36.693333-37.546667-36.693334-63.146666 0-40.106667 32.426667-73.386667 73.386667-73.386667 40.106667 0 73.386667 32.426667 73.386667 73.386667 0 25.6-13.653333 50.346667-36.693334 63.146666z" fill="#C93838" p-id="10900"></path></svg>